<svg width="17" height="14" viewBox="0 0 17 14" fill="none" xmlns="http://www.w3.org/2000/svg">
<path d="M16.2169 3.74303C16.2169 3.19075 15.7692 2.74303 15.2169 2.74303H1C0.447716 2.74303 0 3.19075 0 3.74303V12.36C0 12.9123 0.447715 13.36 1 13.36H15.2169C15.7692 13.36 16.2169 12.9123 16.2169 12.36V3.74303ZM8.10844 11.4656C6.22298 11.4656 4.69438 9.93708 4.69438 8.05148C4.69438 6.16602 6.22291 4.63742 8.10844 4.63742C9.99397 4.63742 11.5226 6.16602 11.5226 8.05148C11.5226 9.93708 9.99397 11.4656 8.10844 11.4656ZM6.1907 0H10.0262L11.2879 2.03425H4.92916L6.1907 0ZM10.157 8.05148C10.157 9.1828 9.23982 10.1 8.10844 10.1C6.97719 10.1 6.06006 9.1828 6.06006 8.05148C6.06006 6.92016 6.97719 6.00303 8.10844 6.00303C9.23982 6.0031 10.157 6.92016 10.157 8.05148Z" fill="#323232"/>
</svg>
