<svg width="24" height="23" viewBox="0 0 24 23" fill="none" xmlns="http://www.w3.org/2000/svg">
<path opacity="0.4" d="M11.5253 0C4.84245 0 0 5.45207 0 11.5023C0 13.4346 0.56361 15.4245 1.5528 17.2419C1.73684 17.5409 1.75985 17.9205 1.63332 18.2771L0.862669 20.8536C0.690135 21.4747 1.21924 21.9348 1.80585 21.7508L4.12931 21.0606C4.76193 20.8536 5.25653 21.1181 5.8443 21.4747C7.52362 22.4639 9.61589 22.97 11.5023 22.97C17.2074 22.97 23.0045 18.5646 23.0045 11.4677C23.0045 5.34855 18.0585 0 11.5253 0Z" fill="#777777"/>
<path fill-rule="evenodd" clip-rule="evenodd" d="M11.4802 12.9861C10.6635 12.9746 10.0079 12.319 10.0079 11.5023C10.0079 10.6971 10.675 10.03 11.4802 10.0415C12.2969 10.0415 12.9525 10.6971 12.9525 11.5138C12.9525 12.319 12.2969 12.9861 11.4802 12.9861ZM6.17688 12.9861C5.37172 12.9861 4.70459 12.319 4.70459 11.5138C4.70459 10.6971 5.36022 10.0415 6.17688 10.0415C6.99354 10.0415 7.64917 10.6971 7.64917 11.5138C7.64917 12.319 6.99354 12.9746 6.17688 12.9861ZM15.3098 11.5138C15.3098 12.3189 15.9654 12.9861 16.7821 12.9861C17.5988 12.9861 18.2544 12.3189 18.2544 11.5138C18.2544 10.6971 17.5988 10.0415 16.7821 10.0415C15.9654 10.0415 15.3098 10.6971 15.3098 11.5138Z" fill="#777777"/>
</svg>
