<svg width="20" height="14" viewBox="0 0 20 14" fill="none" xmlns="http://www.w3.org/2000/svg">
<path fill-rule="evenodd" clip-rule="evenodd" d="M13.2637 3.70375C13.2637 5.75972 11.6247 7.40828 9.58059 7.40828C7.5365 7.40828 5.89746 5.75972 5.89746 3.70375C5.89746 1.64698 7.5365 0 9.58059 0C11.6247 0 13.2637 1.64698 13.2637 3.70375ZM9.58047 14C6.57819 14 4.01465 13.524 4.01465 11.6201C4.01465 9.71548 6.56173 9.22217 9.58047 9.22217C12.5828 9.22217 15.1463 9.69814 15.1463 11.6028C15.1463 13.5067 12.5992 14 9.58047 14ZM14.8385 3.7701C14.8385 4.81818 14.5259 5.79455 13.9775 6.60622C13.9211 6.68975 13.9712 6.80244 14.0707 6.81978C14.2078 6.84342 14.3496 6.85682 14.4938 6.86076C15.9315 6.89858 17.2219 5.96792 17.5784 4.5668C18.1064 2.48561 16.5559 0.617188 14.5815 0.617188C14.3669 0.617188 14.1616 0.64004 13.9618 0.681018C13.9344 0.687322 13.9054 0.699931 13.8897 0.72436C13.8709 0.754305 13.885 0.794494 13.9038 0.820499C14.4969 1.6566 14.8385 2.67631 14.8385 3.7701ZM17.2181 8.32342C18.1841 8.51334 18.8195 8.90105 19.0827 9.46449C19.3053 9.92706 19.3053 10.4637 19.0827 10.9255C18.68 11.7994 17.3818 12.08 16.8773 12.1525C16.7731 12.1682 16.6892 12.0776 16.7002 11.9728C16.958 9.55117 14.9076 8.40301 14.3772 8.13902C14.3545 8.1272 14.3498 8.10908 14.3521 8.09804C14.3537 8.09016 14.3631 8.07755 14.3803 8.07519C15.5281 8.05391 16.7621 8.21152 17.2181 8.32342ZM4.75748 6.86076C4.90164 6.85682 5.04267 6.84421 5.18056 6.81978C5.28006 6.80244 5.3302 6.68975 5.27379 6.60622C4.72536 5.79455 4.41275 4.81818 4.41275 3.7701C4.41275 2.67631 4.75435 1.6566 5.34744 0.820499C5.36624 0.794494 5.37956 0.754305 5.36154 0.72436C5.34587 0.700719 5.3161 0.687322 5.28946 0.681018C5.08889 0.64004 4.88362 0.617188 4.66895 0.617188C2.69458 0.617188 1.14408 2.48561 1.67293 4.5668C2.02941 5.96792 3.3198 6.89858 4.75748 6.86076ZM4.89732 8.09778C4.89967 8.1096 4.89497 8.12694 4.87303 8.13955C4.34184 8.40354 2.29148 9.5517 2.54924 11.9725C2.56021 12.0781 2.47716 12.168 2.37296 12.153C1.8684 12.0805 0.570176 11.8 0.167468 10.926C-0.0558228 10.4635 -0.0558228 9.92759 0.167468 9.46502C0.430717 8.90157 1.06533 8.51386 2.03136 8.32316C2.48813 8.21205 3.72132 8.05444 4.8699 8.07572C4.88714 8.07808 4.89575 8.09069 4.89732 8.09778Z" fill="#323232"/>
</svg>
