<svg width="3" height="17" viewBox="0 0 3 17" fill="none" xmlns="http://www.w3.org/2000/svg">
<path d="M1.5 3C0.671574 3 1.27513e-06 2.32843 1.31134e-06 1.5C1.34755e-06 0.671572 0.671574 -3.62117e-08 1.5 0C2.32843 3.62117e-08 3 0.671573 3 1.5C3 2.32843 2.32843 3 1.5 3Z" fill="black"/>
<path d="M1.5 9.99999C0.671573 9.99999 6.19459e-07 9.32842 6.55671e-07 8.49999C6.91883e-07 7.67157 0.671573 6.99999 1.5 6.99999C2.32843 6.99999 3 7.67157 3 8.49999C3 9.32842 2.32843 9.99999 1.5 9.99999Z" fill="black"/>
<path d="M1.5 17C0.671572 17 -3.62117e-08 16.3284 0 15.5C3.62117e-08 14.6716 0.671573 14 1.5 14C2.32843 14 3 14.6716 3 15.5C3 16.3284 2.32843 17 1.5 17Z" fill="black"/>
</svg>
