<svg width="15" height="15" viewBox="0 0 15 15" fill="none" xmlns="http://www.w3.org/2000/svg">
<path d="M14.1667 3.71168C14.1672 3.61846 14.1494 3.52605 14.1141 3.43974C14.0789 3.35344 14.0269 3.27495 13.9613 3.20876L10.9579 0.205428C10.8917 0.139779 10.8132 0.0878405 10.7269 0.0525905C10.6406 0.0173406 10.5482 -0.000527127 10.455 1.18393e-05C10.3618 -0.000527127 10.2694 0.0173406 10.1831 0.0525905C10.0968 0.0878405 10.0183 0.139779 9.9521 0.205428L7.94751 2.21001L0.205428 9.9521C0.139779 10.0183 0.0878405 10.0968 0.0525905 10.1831C0.0173406 10.2694 -0.000527127 10.3618 1.18393e-05 10.455V13.4583C1.18393e-05 13.6462 0.0746396 13.8264 0.207478 13.9592C0.340316 14.0921 0.520483 14.1667 0.708345 14.1667H3.71168C3.81079 14.1721 3.90994 14.1566 4.00268 14.1212C4.09542 14.0858 4.17968 14.0313 4.25001 13.9613L11.9496 6.21918L13.9613 4.25001C14.0259 4.18136 14.0786 4.10235 14.1171 4.01626C14.1239 3.9598 14.1239 3.90272 14.1171 3.84626C14.1204 3.81329 14.1204 3.78007 14.1171 3.7471L14.1667 3.71168ZM3.42126 12.75H1.41668V10.7454L8.45043 3.71168L10.455 5.71626L3.42126 12.75ZM11.4538 4.71751L9.44918 2.71293L10.455 1.71418L12.4525 3.71168L11.4538 4.71751Z" fill="#121212"/>
</svg>
