<svg width="83" height="84" viewBox="0 0 83 84" fill="none" xmlns="http://www.w3.org/2000/svg">
<rect x="0.510376" y="0.51001" width="82.0784" height="82.9804" rx="41.0392" fill="#E8DFD9"/>
<mask id="mask0_75_3425" style="mask-type:alpha" maskUnits="userSpaceOnUse" x="0" y="0" width="83" height="84">
<rect x="0.510376" y="0.51001" width="82.0784" height="82.9804" rx="41.0392" fill="#E8DFD9"/>
</mask>
<g mask="url(#mask0_75_3425)">
<path d="M70.8657 58.5291C70.2792 58.0002 69.9536 57.195 70.0076 56.4075C70.0619 55.6194 70.4944 54.8665 71.1476 54.4227C71.3854 54.2614 71.6542 54.1381 71.9395 54.1053C72.6087 54.0281 73.2349 54.451 73.7026 54.9358C75.3349 56.6262 75.7951 59.172 75.5389 61.5081" fill="#E8514D"/>
<path d="M76.7648 64.4717C75.9514 64.9069 74.9433 64.6965 74.0936 64.3371C72.0322 63.4652 70.3415 61.7526 69.497 59.68C69.2367 59.0422 69.057 58.3077 69.3337 57.677C69.6446 56.9675 70.486 56.592 71.2578 56.6607C72.0292 56.7293 72.7261 57.1677 73.2819 57.7071C73.8378 58.2465 74.2798 58.8898 74.769 59.49" fill="#FFB1AF"/>
<path d="M76.9946 64.9301C74.0832 62.8564 72.4779 59.0889 72.9999 55.5527C73.0587 55.1523 73.1622 54.7229 73.4772 54.469C73.7628 54.2391 74.1635 54.2077 74.5253 54.2678C75.1945 54.3782 75.7917 54.7588 76.3001 55.2077C77.6136 56.3678 78.4482 58.0544 78.5736 59.8022C78.6993 61.55 78.1148 63.3387 76.9809 64.6749" fill="#FE7F77"/>
<path d="M77.347 66.1275C76.8222 65.7083 76.3477 65.227 75.9371 64.6961C75.8462 64.5792 75.7543 64.4378 75.7902 64.2946C75.8168 64.1915 75.9036 64.1163 75.9859 64.0487C76.3385 63.7586 76.6907 63.4689 77.0429 63.1792C77.2295 63.0255 77.4495 62.8625 77.6876 62.9025C77.8741 62.9339 78.0214 63.0894 78.091 63.2653C78.1604 63.4409 78.1652 63.6353 78.1597 63.8239C78.1358 64.6581 77.9332 65.4866 77.5694 66.2375" fill="#3F5B50"/>
<path d="M11.392 66.2954C11.1054 65.9425 11.0189 65.4369 11.172 65.0089C11.325 64.5805 11.7121 64.2446 12.1576 64.1531C12.2895 64.1261 12.4275 64.1193 12.5587 64.149C12.9355 64.2337 13.1982 64.6225 13.2009 65.0082C13.2036 65.3946 12.9826 65.7594 12.6786 65.9972C12.3745 66.235 11.996 66.3593 11.6161 66.428" fill="#FCC5BD"/>
<path d="M11.4931 66.2804C11.4917 65.865 11.5371 65.4496 11.6331 65.0458C11.6598 64.9337 11.6905 64.8224 11.7247 64.7127C11.7342 64.6826 11.6868 64.6697 11.6775 64.6997C11.5535 65.094 11.4808 65.5043 11.4548 65.9166C11.4469 66.0375 11.4432 66.1592 11.4439 66.2804C11.4439 66.3119 11.4931 66.3122 11.4931 66.2804Z" fill="white"/>
<path d="M11.4855 66.3323C11.7373 65.856 11.9887 65.3802 12.2401 64.9036C12.3108 64.7703 12.3816 64.6371 12.4519 64.5035C12.4666 64.4755 12.4243 64.4506 12.4096 64.4786C12.1578 64.9548 11.906 65.4307 11.6546 65.9069C11.5842 66.0405 11.5138 66.1738 11.4431 66.3073C11.4284 66.3353 11.4708 66.3603 11.4855 66.3323Z" fill="white"/>
<path d="M11.5728 66.3373C11.8947 66.0315 12.197 65.7056 12.4768 65.3612C12.5543 65.2652 12.6298 65.1682 12.7043 65.0698C12.7231 65.0449 12.6804 65.0203 12.6616 65.0452C12.3982 65.3944 12.1123 65.7264 11.8062 66.0387C11.7184 66.1282 11.6292 66.2163 11.538 66.3021C11.5151 66.3243 11.55 66.3588 11.5728 66.3373Z" fill="white"/>
<path d="M11.643 66.3244C12.0526 66.156 12.4281 65.9114 12.7465 65.6035C12.7694 65.5813 12.7345 65.5468 12.7116 65.5687C12.3997 65.8704 12.0315 66.1119 11.6301 66.2769C11.601 66.2889 11.614 66.3363 11.643 66.3244Z" fill="white"/>
<path d="M11.601 66.587C11.9205 66.2631 12.4131 66.1213 12.8555 66.2259C13.2979 66.3307 13.6747 66.6788 13.8148 67.1114C13.8565 67.2395 13.8783 67.3758 13.8633 67.5093C13.8209 67.893 13.4633 68.197 13.0799 68.2428C12.6966 68.2879 12.3099 68.1086 12.0397 67.8325C11.7698 67.5568 11.6041 67.194 11.4944 66.824" fill="#FCC5BD"/>
<path d="M11.6273 66.6856C12.04 66.6381 12.4578 66.6374 12.8698 66.6883C12.9843 66.7027 13.098 66.7208 13.2108 66.7426C13.2422 66.7491 13.2497 66.7003 13.2186 66.6941C12.8131 66.6149 12.3973 66.5879 11.9847 66.6073C11.8634 66.6128 11.7424 66.6227 11.6218 66.6364C11.5904 66.6401 11.5959 66.6893 11.6273 66.6856Z" fill="white"/>
<path d="M11.5748 66.6836L13.0776 67.276L13.4988 67.4424C13.5282 67.454 13.5484 67.4089 13.519 67.3973C13.0182 67.1998 12.517 67.0024 12.0162 66.8049L11.5946 66.6389C11.5652 66.6273 11.5454 66.6723 11.5748 66.6836Z" fill="white"/>
<path d="M11.5796 66.7714C11.9188 67.0573 12.2762 67.3218 12.6496 67.5616C12.7531 67.6282 12.858 67.6928 12.9639 67.7556C12.9912 67.7717 13.0107 67.7266 12.984 67.7105C12.6079 67.4875 12.2461 67.2398 11.9017 66.9702C11.8034 66.8927 11.706 66.8138 11.6103 66.7328C11.5861 66.7123 11.5553 66.7506 11.5796 66.7714Z" fill="white"/>
<path d="M11.6002 66.8395C11.813 67.2283 12.0976 67.574 12.4385 67.8569C12.4628 67.877 12.4935 67.8387 12.4693 67.8183C12.1351 67.5415 11.8543 67.2023 11.6459 66.8214C11.6309 66.794 11.5851 66.8118 11.6002 66.8395Z" fill="white"/>
<path d="M11.4287 66.8862C11.7252 67.2309 11.8263 67.7334 11.6852 68.1659C11.5445 68.5984 11.1673 68.9451 10.7246 69.0493C10.5934 69.0801 10.4561 69.0907 10.3239 69.0651C9.94499 68.9913 9.671 68.61 9.65734 68.2243C9.64333 67.8383 9.85411 67.4676 10.151 67.221C10.4482 66.9746 10.8233 66.8394 11.2008 66.7601" fill="#FCC5BD"/>
<path d="M11.3281 66.9041C11.3414 67.3192 11.3076 67.7357 11.2232 68.1422C11.2 68.2549 11.1726 68.3666 11.1412 68.4773C11.1327 68.5081 11.1805 68.5197 11.189 68.4893C11.3014 68.0916 11.3626 67.68 11.3769 67.2669C11.381 67.1453 11.381 67.024 11.3773 66.9028C11.3763 66.871 11.3271 66.8724 11.3281 66.9041Z" fill="white"/>
<path d="M11.3343 66.8517C11.0966 67.3348 10.8584 67.8178 10.6207 68.3009C10.5537 68.4365 10.4874 68.5718 10.4205 68.7074C10.4065 68.7358 10.4499 68.7594 10.4639 68.731C10.7016 68.248 10.9394 67.7649 11.1775 67.2815C11.2441 67.1462 11.3108 67.0109 11.3774 66.8753C11.3914 66.8469 11.3483 66.8234 11.3343 66.8517Z" fill="white"/>
<path d="M11.2466 66.8495C10.9337 67.1641 10.6409 67.4982 10.371 67.8511C10.2965 67.9488 10.2234 68.0479 10.152 68.1484C10.1339 68.1743 10.1773 68.1975 10.1951 68.1719C10.4486 67.8153 10.7249 67.4753 11.0218 67.1546C11.1072 67.0623 11.194 66.9718 11.2821 66.8833C11.3047 66.8604 11.2688 66.8269 11.2466 66.8495Z" fill="white"/>
<path d="M11.1769 66.8641C10.7724 67.0442 10.4041 67.2994 10.0946 67.6164C10.0724 67.6393 10.1082 67.6728 10.1304 67.6502C10.4335 67.34 10.7949 67.0879 11.1912 66.9113C11.2199 66.8987 11.2059 66.8515 11.1769 66.8641Z" fill="white"/>
<path d="M11.2001 66.5499C10.7874 66.596 10.3696 66.5953 9.95761 66.543C9.84316 66.5287 9.72974 66.5102 9.61666 66.4874C9.58558 66.4815 9.57772 66.5297 9.60881 66.5362C10.014 66.6168 10.4297 66.6452 10.8424 66.6274C10.9637 66.622 11.0846 66.6124 11.2052 66.5991C11.2367 66.5956 11.2315 66.5465 11.2001 66.5499Z" fill="white"/>
<path d="M11.0251 66.5289C11.0548 66.3789 11.1765 66.2075 11.3418 66.1982C11.5075 66.1897 11.6629 66.3038 11.7374 66.4514C11.7989 66.5737 11.8122 66.7237 11.7538 66.8477C11.6698 67.0263 11.4327 67.1145 11.2523 67.0339C11.0716 66.9529 10.9479 66.7107 11.0251 66.5289Z" fill="#34252C"/>
<path d="M7.39585 86.719C8.65168 83.7526 10.3643 79.703 10.4992 76.4848C10.546 75.3721 10.5207 74.2386 10.1876 73.1762C10.1634 73.0993 10.1289 73.0132 10.0527 72.9862C9.93688 72.9449 9.83269 73.0665 9.77085 73.1727C7.42523 77.1992 6.95857 82.0797 7.39585 86.719Z" fill="#3F5B50"/>
<path d="M39.5325 8.34628C34.0781 8.63564 28.6377 10.7964 24.8784 14.7593C21.1188 18.7222 19.2326 24.5466 20.5062 29.8586C21.3798 33.5038 23.655 37.0499 22.8566 40.7125C22.4662 42.5033 21.3757 44.0464 20.5336 45.6746C16.791 52.912 18.3734 62.5224 24.2389 68.1774C25.7434 69.6279 27.4874 70.8329 28.8464 72.4201C30.2232 74.0271 31.2378 76.0492 33.0823 77.0864C34.7938 78.0487 36.8853 77.9643 38.836 77.7385C44.0185 77.1383 49.434 75.5251 52.7884 71.5294C55.3482 68.4801 56.3782 64.4024 56.587 60.4268C56.7937 56.4848 56.2628 52.5052 55.0295 48.7555C53.8731 45.237 52.1055 41.9184 51.2712 38.3102C50.4722 34.8543 50.5593 31.2654 50.5275 27.7187C50.4951 24.1719 50.3239 20.551 49.052 17.2399C47.7805 13.9288 45.2224 10.9307 41.8047 9.98199" fill="#431100"/>
<path d="M54.8819 48.7553C53.7252 45.2372 51.9576 41.9183 51.1237 38.31C50.3246 34.8541 50.4117 31.2653 50.3793 27.7185C50.3472 24.1718 50.1764 20.5508 48.9045 17.2398C47.8065 14.3817 45.7488 11.76 43.0086 10.4851C40.7491 11.8448 38.467 13.2362 36.5929 15.1087C34.5516 17.1482 32.7834 19.5499 30.9061 21.7455C28.6773 24.3521 27.5616 27.1152 27.5373 30.5804C27.5141 33.888 28.3012 37.129 28.9298 40.355C29.527 43.4181 29.5922 46.2802 28.5482 49.2527C27.634 51.8553 26.51 54.2214 26.1438 56.9855C25.5449 61.5087 26.0222 67.3857 29.4672 70.7603C30.3178 71.5932 30.1057 72.7257 29.4754 73.4025C30.5047 74.782 31.4517 76.2527 32.9344 77.0862C34.6459 78.049 36.7377 77.9646 38.6884 77.7384C43.8709 77.1385 49.2864 75.525 52.6405 71.5297C55.2007 68.4803 56.2304 64.4023 56.4391 60.4267C56.6458 56.4847 56.1149 52.5054 54.8819 48.7553Z" fill="#300B01"/>
<path d="M37.5718 41.2701C39.5119 43.6697 39.1207 49.7944 37.5718 52.4632C36.0232 55.1323 34.0407 55.2488 30.6719 56.4555C27.7667 57.4961 24.9315 57.9921 22.0352 59.058C19.9752 59.8161 17.8957 60.4542 16.3471 62.01C13.7576 64.6115 13.8956 68.6892 13.201 72.293C18.3279 73.625 22.5497 74.7176 27.8402 74.9799C32.3217 75.2017 36.8004 74.6462 41.2798 74.3865C52.1159 73.7576 63.0832 74.8518 73.7783 72.9995C74.0646 72.9496 74.3686 72.8892 74.5763 72.6859C74.7881 72.4785 74.853 72.1663 74.894 71.8728C75.2982 68.9639 74.2524 65.9531 72.3783 63.6918C70.5044 61.4306 67.8633 59.883 65.0592 59.0098C61.1831 57.8025 56.8068 57.742 53.5378 55.3342C50.4816 53.0829 49.0416 49.1429 48.918 45.3488C48.795 41.555 49.8113 37.8268 50.8188 34.167" fill="#FFA695"/>
<path d="M38.8405 47.406C41.3316 46.6947 44.2775 45.7645 46.3215 44.1677C47.3979 43.3276 48.4187 42.4206 49.4176 41.4883C49.7842 39.5759 49.8085 36.2932 50.3254 34.4166L37.572 42.9071C38.4237 44.3389 38.9348 45.6859 38.8405 47.406Z" fill="#E8887C"/>
<path d="M23.712 59.1893C23.712 59.1893 38.5332 57.2537 41.5426 59.4954C44.552 61.7372 23.712 59.1893 23.712 59.1893Z" fill="#E8887C"/>
<path d="M34.8428 14.4916C32.2286 15.7993 29.9336 17.8112 28.4994 20.358C27.0649 22.9048 26.5375 25.9959 27.272 28.8253C27.5101 29.7408 27.878 30.6619 27.7612 31.6006C27.548 33.3112 25.8638 34.3993 24.9721 35.8748C24.8693 36.0452 24.7736 36.242 24.8184 36.4357C24.8467 36.557 24.927 36.6595 25.0158 36.7463C25.6895 37.4039 26.943 37.4094 27.3273 38.2685C27.5353 38.7328 27.3905 39.2699 27.4076 39.7785C27.4247 40.2865 27.7707 40.8892 28.2733 40.8089C27.9511 41.0679 27.9477 41.569 28.1025 41.9523C28.2569 42.3356 28.5322 42.6595 28.6979 43.0384C29.016 43.7671 28.8937 44.6006 28.9319 45.3949C28.9702 46.1892 29.2818 47.0942 30.0364 47.3446C30.4026 47.4662 30.801 47.4054 31.1819 47.3436C33.3089 46.9982 35.4358 46.6528 37.5628 46.3071C39.4695 45.9976 41.6794 45.1643 43.3582 44.2088C46.2053 42.5878 47.6665 40.1988 49.1188 35.3012" fill="#FFA695"/>
<path d="M28.843 26.5041C29.7975 25.9671 30.7199 25.6992 31.8084 25.5745C32.8964 25.4498 33.8141 25.4703 34.676 26.1468C34.7819 26.2301 34.8919 26.374 34.8147 26.4843C34.7792 26.5352 34.7132 26.5929 34.6552 26.5711C33.9934 26.3227 33.6706 26.2329 32.9767 26.239C31.7684 26.2496 30.2939 27.2249 29.1522 27.6216C28.8382 27.7302 28.4806 27.8146 28.184 27.6643C27.8878 27.5143 28.113 26.9106 28.843 26.5041Z" fill="#441001"/>
<path d="M29.5544 31.3207C30.0842 32.0637 31.2697 31.9513 32.024 31.6811C32.93 31.3562 33.6676 30.7156 34.2753 29.9846C34.4414 29.7851 34.1431 29.5128 33.9764 29.7133C33.4578 30.3368 32.8453 30.9053 32.0886 31.2226C31.7401 31.3692 31.3698 31.4775 30.9899 31.4741C30.6052 31.4703 30.1362 31.4413 29.8929 31.1C29.7423 30.8889 29.4027 31.1082 29.5544 31.3207Z" fill="#6D3016"/>
<path d="M29.2345 39.295C28.8259 39.2574 28.4047 39.1785 28.0118 39.2971C27.6442 39.4081 27.223 39.7402 27.2086 40.3848C27.2038 40.4224 27.2028 40.4641 27.2062 40.5095C27.2062 40.5122 27.2059 40.5146 27.2062 40.5177L27.2066 40.5126C27.2179 40.6503 27.2725 40.8091 27.4198 40.9085C27.5236 40.9786 27.635 41.0411 27.7194 41.134C27.9117 41.3451 27.8605 41.6755 27.9431 41.9488C28.1054 42.4838 28.7897 42.713 29.3274 42.5596C29.8655 42.4059 30.2778 41.9812 30.6389 41.5542C31.4045 40.6496 31.7332 40.2717 32.2716 39.2161C31.2494 39.7719 30.3933 39.4016 29.2345 39.295Z" fill="#DC0000"/>
<path d="M12.9086 73.9389C9.34985 87.5685 13.9762 102.32 10.4847 115.967C21.6054 118.003 32.9123 119.02 44.2175 119C48.4687 118.992 52.7278 118.838 56.9397 118.262C60.4701 117.78 63.9534 117.004 67.4315 116.228C72.0165 115.206 76.6011 114.184 81.1861 113.162C81.4215 113.11 81.6832 113.039 81.8034 112.83C81.9329 112.604 81.8393 112.321 81.7447 112.078C79.2368 105.639 77.6947 98.8262 77.1846 91.9352C76.763 86.2334 77.009 80.313 74.7949 75.042" fill="#93A297"/>
<path d="M11.415 82.3945C12.6944 85.1409 15.2488 87.2607 18.1841 88.0112C21.8036 88.9367 25.7293 87.8537 29.3167 88.896C31.9705 89.6667 34.1566 91.5177 36.6136 92.7817C39.2806 94.154 42.3802 94.8311 45.3206 94.2408C47.4309 93.8175 49.3577 92.7749 51.388 92.0605C54.1172 91.0999 57.0552 90.7364 59.9365 91.0022C62.6938 91.2563 65.4357 92.0783 68.1848 91.7469C71.5536 91.3407 74.1811 88.8157 76.9185 86.8104C76.5 81.9155 76.7095 76.5301 73.1719 73.121C72.9406 72.8979 72.1152 73.1634 71.7955 73.1265C71.3285 73.0732 70.9257 73.424 70.5666 73.7274C68.2805 75.6569 65.2724 76.459 62.3587 77.1379C56.8014 78.4326 51.1519 79.4831 45.4464 79.5566C36.2747 79.6758 27.0114 77.279 18.0122 79.0544" fill="#728777"/>
<path d="M13.3987 69.3233C19.6184 69.4466 25.7671 70.5579 31.9591 71.1353C45.5784 72.4048 59.3003 71.0833 72.9056 69.6786C74.0006 69.5658 75.1413 69.4572 76.175 69.8238C76.9915 70.1135 77.6717 70.6792 78.2706 71.288C80.2117 73.2609 81.4576 75.7411 82.557 78.263C82.831 78.8919 82.2987 79.5578 81.596 79.4772C78.7516 79.1492 75.7531 80.0613 73.6726 81.97C71.6625 83.8138 70.4316 86.5113 67.9619 87.7299C65.8281 88.7824 63.2253 88.4647 60.9784 87.6598C58.7315 86.8546 56.681 85.6029 54.4433 84.7744C53.2781 84.343 52.0243 84.0253 50.7886 84.1947C47.1369 84.6959 45.2689 89.0223 41.7402 90.0584C38.5928 90.9829 35.3972 89.0065 32.7243 87.1556C30.0521 85.305 26.7868 83.3888 23.6797 84.4328C21.7714 85.0737 20.2204 86.7808 18.1996 86.7784C16.2124 86.7764 14.715 85.1407 13.0612 84.0775C11.0395 82.7783 8.48168 82.3011 6.09506 82.7182C5.38072 82.8432 4.79585 82.1798 5.06813 81.5307C6.9136 77.1326 9.71291 70.9125 13.3987 69.3233Z" fill="#D4CBC4"/>
<path d="M31.616 14.2029C35.6168 8.40722 43.0319 5.17302 50.0014 6.18321C56.971 7.19341 63.162 12.3998 65.3528 19.0927C67.654 26.122 65.825 34.2999 69.4473 40.7485C70.8421 43.2311 72.9387 45.2307 74.7145 47.4571C80.1915 54.3238 82.5159 63.8166 80.037 72.2432C77.5582 80.6695 70.0198 87.5933 61.2926 88.5861C63.0113 86.5011 63.0127 83.3783 61.8915 80.9196C60.7695 78.4612 58.7092 76.5601 56.5501 74.9346C54.3913 73.3098 52.07 71.8791 50.1247 70.0028C44.9986 65.0574 43.0892 57.0479 45.4338 50.3223C46.5653 47.0761 48.6076 44.0514 48.7463 40.6166C48.9106 36.5615 46.2954 32.8118 42.9936 30.4518C40.7525 28.8503 38.1619 27.7287 36.1412 25.8569C32.9829 22.9312 30.5621 18.377 31.616 14.2029Z" fill="#431100"/>
<path d="M66.9764 65.5496C64.7787 63.6023 63.1921 61.1525 62.1088 58.4362C60.8756 55.3428 60.7112 51.9955 59.9829 48.7794C59.2429 45.5121 57.9294 42.3148 56.5632 39.2668C55.3757 36.6171 54.1786 33.7379 52.2054 31.5613C49.1751 28.2182 44.7879 26.5517 40.9118 24.4391C36.9291 22.2687 33.5364 19.5876 31.3988 15.5793C31.1057 19.3509 33.327 23.2499 36.1413 25.8568C38.1617 27.7286 40.7526 28.8505 42.9934 30.4521C46.2955 32.8117 48.9104 36.5614 48.7464 40.6165C48.6073 44.0513 46.5654 47.0761 45.4336 50.3219C43.0894 57.0478 44.9984 65.0577 50.1248 70.0027C52.0697 71.879 54.3911 73.3097 56.5499 74.9348C58.7093 76.56 60.7696 78.4611 61.8912 80.9195C63.0124 83.3785 63.0114 86.501 61.2923 88.5863C70.0196 87.5932 77.5583 80.6694 80.0368 72.2431C80.3562 71.1571 80.5944 70.0533 80.758 68.9399C76.2837 70.919 70.5378 68.7052 66.9764 65.5496Z" fill="#431100"/>
<path d="M43.5003 31.2563C43.4064 30.5921 43.7016 29.9325 44.0739 29.3746C44.5693 28.6312 45.2584 27.9633 46.1247 27.7457C46.8275 27.5691 47.6002 27.7153 48.2018 28.1194C48.8031 28.5232 49.2281 29.1744 49.3774 29.8836C49.4833 30.3889 49.4542 30.9143 49.3763 31.4247C49.2817 32.04 49.1157 32.647 48.8475 33.2087C48.4317 34.0802 47.77 34.8328 46.9586 35.3562C46.5436 35.624 46.0789 35.8358 45.5867 35.8758C45.0944 35.9157 44.5703 35.7647 44.2365 35.4006C43.8819 35.0142 43.788 34.4563 43.7801 33.9319" fill="#FFA695"/>
<path d="M44.7673 33.533C44.7605 33.4151 44.7646 33.6006 44.7652 33.4824C44.7652 33.452 44.7659 33.4216 44.767 33.3912C44.7693 33.3242 44.7745 33.2573 44.7823 33.191C44.7905 33.1244 44.8011 33.0581 44.8144 32.9925C44.8179 32.9765 44.8329 32.9116 44.8213 32.9577C44.8302 32.9221 44.8404 32.887 44.851 32.8521C44.8899 32.724 44.9395 32.599 44.9989 32.4787C45.0379 32.3991 45.1041 32.2922 45.1837 32.1853C45.2203 32.1364 45.2592 32.0899 45.2985 32.0431C45.346 31.9861 45.2873 32.0507 45.3358 32.0025C45.3617 31.9769 45.3873 31.9512 45.4143 31.9263C45.5127 31.8347 45.619 31.7534 45.73 31.6779C45.7778 31.6455 45.7303 31.6762 45.7601 31.6591C45.7864 31.6438 45.8127 31.6284 45.8393 31.6141C45.8984 31.5819 45.9586 31.5526 46.02 31.5256C46.0809 31.4982 46.1434 31.4736 46.2066 31.4518C46.2083 31.4511 46.3173 31.4186 46.2547 31.4357C46.2899 31.4262 46.3251 31.4173 46.361 31.4087C46.5421 31.3653 46.6968 31.1979 46.6555 30.9995C46.6182 30.8215 46.4406 30.6585 46.2465 30.705C45.594 30.8608 45.0075 31.228 44.605 31.7685C44.2016 32.3106 44.0263 32.9778 44.0635 33.6474C44.0738 33.8343 44.2976 33.9788 44.4725 33.9423C44.6785 33.8992 44.7782 33.7332 44.7673 33.533Z" fill="#E8887C"/>
</g>
</svg>
