<svg width="24" height="24" viewBox="0 0 24 24" fill="none" xmlns="http://www.w3.org/2000/svg">
<path opacity="0.3" fill-rule="evenodd" clip-rule="evenodd" d="M15.2499 22.8333C18.2415 22.8333 20.6666 20.4082 20.6666 17.4167C20.6666 14.4251 18.2415 12 15.2499 12C12.2584 12 9.83325 14.4251 9.83325 17.4167C9.83325 20.4082 12.2584 22.8333 15.2499 22.8333Z" fill="#343434"/>
<path opacity="0.3" fill-rule="evenodd" clip-rule="evenodd" d="M8.74992 22.8333C11.7415 22.8333 14.1666 20.4082 14.1666 17.4167C14.1666 14.4251 11.7415 12 8.74992 12C5.75838 12 3.33325 14.4251 3.33325 17.4167C3.33325 20.4082 5.75838 22.8333 8.74992 22.8333Z" fill="#343434"/>
<path opacity="0.3" fill-rule="evenodd" clip-rule="evenodd" d="M6.58341 16.3333C9.57496 16.3333 12.0001 13.9082 12.0001 10.9167C12.0001 7.92512 9.57496 5.5 6.58341 5.5C3.59187 5.5 1.16675 7.92512 1.16675 10.9167C1.16675 13.9082 3.59187 16.3333 6.58341 16.3333Z" fill="#343434"/>
<path opacity="0.3" fill-rule="evenodd" clip-rule="evenodd" d="M17.4167 16.3333C20.4082 16.3333 22.8333 13.9082 22.8333 10.9167C22.8333 7.92512 20.4082 5.5 17.4167 5.5C14.4251 5.5 12 7.92512 12 10.9167C12 13.9082 14.4251 16.3333 17.4167 16.3333Z" fill="#343434"/>
<path opacity="0.3" fill-rule="evenodd" clip-rule="evenodd" d="M11.9999 12C14.9915 12 17.4166 9.57488 17.4166 6.58333C17.4166 3.59179 14.9915 1.16667 11.9999 1.16667C9.00838 1.16667 6.58325 3.59179 6.58325 6.58333C6.58325 9.57488 9.00838 12 11.9999 12Z" fill="#343434"/>
</svg>
