<svg width="25" height="23" viewBox="0 0 25 23" fill="none" xmlns="http://www.w3.org/2000/svg">
<rect x="5.47742" y="6.57135" width="13.1429" height="9.85714" fill="white"/>
<path d="M24.176 11.5L21.4392 8.4614L21.8677 4.3935L17.8657 3.54625L15.8243 0L12.088 1.6698L8.35172 0L6.31032 3.54625L2.30837 4.3935L2.73683 8.4614L0 11.5L2.73679 14.5386L2.30832 18.6065L6.31027 19.4537L8.35167 23L12.088 21.3301L15.8243 23L17.8657 19.4537L21.8676 18.6065L21.4391 14.5386L24.176 11.5ZM17.1556 8.85323L11.0879 15.6512L6.87149 11.4348L7.87437 10.4319L11.0293 13.5869L16.0975 7.90879L17.1556 8.85323Z" fill="#6DB533"/>
</svg>
